<?xml version="1.0" standalone="no"?>
<!DOCTYPE svg PUBLIC "-//W3C//DTD SVG 20010904//EN"
 "http://www.w3.org/TR/2001/REC-SVG-20010904/DTD/svg10.dtd">
<svg version="1.0" xmlns="http://www.w3.org/2000/svg"
 width="500.000000pt" height="499.000000pt" viewBox="0 0 500.000000 499.000000"
 preserveAspectRatio="xMidYMid meet">

<g transform="translate(0.000000,499.000000) scale(0.100000,-0.100000)"
fill="#000000" stroke="none">
<path d="M2435 4471 c-48 -21 -110 -88 -136 -145 -39 -86 -15 -154 72 -209
l51 -31 -52 -18 c-74 -25 -120 -56 -120 -80 0 -19 4 -20 50 -15 90 11 274 102
368 183 35 30 36 31 22 65 -7 19 -16 38 -20 42 -4 4 -40 -8 -81 -28 -40 -19
-85 -35 -99 -35 -35 0 -67 24 -90 70 -45 88 -16 125 96 125 72 0 74 1 74 25 0
66 -56 87 -135 51z"/>
<path d="M2589 3842 l-146 -121 -7 -278 c-14 -600 -70 -1168 -165 -1698 -11
-60 -18 -111 -16 -113 7 -7 127 92 186 155 79 82 89 106 89 205 0 91 24 420
70 973 52 615 57 665 64 672 3 4 29 -15 56 -42 27 -27 52 -47 54 -44 4 3 -28
353 -37 398 -1 8 -61 -35 -148 -107z"/>
<path d="M2195 3348 c-50 -11 -178 -74 -200 -98 -9 -10 -23 -51 -32 -91 -20
-99 -76 -291 -105 -364 -23 -57 -26 -60 -67 -68 -99 -20 -151 20 -151 115 l0
47 -30 -10 c-42 -15 -90 -73 -90 -110 0 -91 110 -171 212 -155 28 5 38 3 38
-7 0 -26 -101 -166 -155 -216 -84 -76 -170 -94 -189 -40 -14 42 19 99 76 129
27 14 48 30 48 37 0 15 -47 52 -76 59 -32 8 -103 -33 -131 -75 -38 -56 -28
-129 25 -184 40 -42 88 -60 167 -61 72 -1 117 16 187 67 62 46 162 199 210
323 15 36 23 43 63 54 25 7 48 10 51 7 10 -9 -33 -198 -70 -313 -32 -98 -34
-110 -20 -125 37 -41 149 -29 185 21 25 35 65 188 91 355 19 119 22 182 23
417 0 173 -4 280 -10 286 -6 5 -26 5 -50 0z m-95 -185 c-1 -36 -32 -352 -36
-365 -6 -19 -45 -33 -68 -25 -11 5 -10 17 6 74 16 58 58 228 74 301 4 20 24
32 24 15z"/>
<path d="M3535 3353 c-72 -10 -196 -48 -271 -84 -160 -76 -244 -186 -244 -321
0 -37 4 -78 9 -91 12 -30 65 -73 103 -82 l27 -7 -1 84 c-1 66 4 94 22 136 58
133 248 235 497 264 61 7 103 17 103 23 0 14 -47 58 -77 74 -21 11 -104 13
-168 4z"/>
<path d="M2857 3138 c-19 -15 -53 -139 -44 -163 4 -8 17 -20 31 -26 20 -9 32
-8 63 7 32 16 40 27 55 74 21 70 22 85 2 104 -19 19 -83 21 -107 4z"/>
<path d="M3335 3088 c-2 -7 -6 -51 -10 -98 -3 -47 -11 -112 -18 -144 -12 -57
-13 -60 -54 -73 -46 -16 -97 -58 -88 -73 3 -6 31 -10 61 -10 30 0 54 -4 54
-10 0 -18 -79 -316 -99 -374 -28 -80 -27 -109 9 -149 37 -43 105 -75 128 -61
32 20 107 292 142 517 l13 77 34 0 c52 0 133 46 133 76 0 9 -22 14 -77 16
l-78 3 4 111 c3 108 3 111 -25 143 -41 49 -119 78 -129 49z"/>
<path d="M2849 2870 c-47 -25 -63 -51 -99 -159 -56 -166 -70 -332 -34 -403 38
-75 144 -57 258 43 76 67 55 92 -35 42 l-49 -28 -22 23 c-21 21 -23 31 -23
135 1 116 18 212 55 310 11 29 20 53 20 55 0 8 -41 -2 -71 -18z"/>
</g>
</svg>
